<svg xmlns="http://www.w3.org/2000/svg" viewBox="0 0 216 230.96"><defs><style>.cls-1{fill:#ed1c24;stroke:#c1272d;stroke-miterlimit:10;stroke-width:16px;}.cls-2{fill:#998675;}.cls-3{fill:#534741;}.cls-4{fill:#b3b3b3;}.cls-5{fill:#e6e6e6;}</style></defs><g id="Camada_2" data-name="Camada 2"><g id="Camada_1-2" data-name="Camada 1"><circle class="cls-1" cx="108" cy="116.56" r="100"/><path class="cls-2" d="M144.09,196l.28.37a10.22,10.22,0,0,0,14.34,1.73l14.78-11.6-6.6-8.4Z"/><path class="cls-3" d="M166.89,178.1l6.6,8.4,13.57-10.65a10.21,10.21,0,0,0,1.73-14.34l-.29-.37Z"/><path class="cls-2" d="M162.13,190.57,188.07,218a11.43,11.43,0,0,0,18.39,10.56l-36.24-46.19Z"/><path class="cls-3" d="M200.58,208.14l-22.28-34-8.08,8.24,36.24,46.19a11.44,11.44,0,0,0-5.88-20.38Z"/><line class="cls-4" x1="175.9" y1="171.03" x2="166.89" y2="178.1"/><polyline class="cls-4" points="27.31 0.24 166.9 178.1 175.9 171.03 48.27 8.4"/><polyline class="cls-5" points="26.71 0.71 166.29 178.57 157.29 185.63 29.66 23"/><path class="cls-2" d="M68.16,193.52l-.3.36a10.22,10.22,0,0,1-14.37,1.46L38.94,183.46l6.75-8.27Z"/><path class="cls-3" d="M45.69,175.19l-6.75,8.27-13.37-10.9a10.22,10.22,0,0,1-1.46-14.37l.3-.37Z"/><path class="cls-2" d="M50.22,187.74l-26.45,26.9a11.44,11.44,0,0,1-18.6,10.21l37.12-45.5Z"/><path class="cls-3" d="M11.44,204.58,34.36,171l7.93,8.38L5.17,224.85a11.45,11.45,0,0,1,6.27-20.27Z"/><line class="cls-4" x1="36.82" y1="167.95" x2="45.69" y2="175.19"/><polyline class="cls-4" points="188.62 0 45.69 175.19 36.82 167.95 167.51 7.77"/><polyline class="cls-5" points="189.21 0.48 46.28 175.67 55.15 182.9 185.84 22.72"/></g></g></svg>