<svg xmlns="http://www.w3.org/2000/svg" viewBox="0 0 216 216"><defs><style>.cls-1{fill:#39b54a;stroke:#00704c;stroke-miterlimit:10;stroke-width:16px;}.cls-2{fill:#00704c;}.cls-3{font-size:100px;fill:#175939;font-family:MaiandraGD-Regular, Maiandra GD;}</style></defs><g id="Camada_2" data-name="Camada 2"><g id="Camada_1-2" data-name="Camada 1"><circle class="cls-1" cx="108" cy="108" r="100"/><path class="cls-2" d="M90.53,37.18a18.05,18.05,0,0,1,10.14.92,46.37,46.37,0,0,1-9.13,2.5,46.48,46.48,0,0,1-9.85.76A18,18,0,0,1,90.53,37.18Z"/><path class="cls-2" d="M79.94,166.89a47.82,47.82,0,0,1,14.3,2.23c-1.32,2.57-4.18,4.57-8.65,5-4.68.49-10.3-1-15.29-3.94C72.36,168.08,75.66,167,79.94,166.89Z"/><path class="cls-2" d="M82.31,161.51c-2.55-3.14-3-6.41-2.19-9.15a34.94,34.94,0,0,1,10.32,7.21c2.62,2.8,4,5.76,4,8.69C89.46,167.27,85,164.8,82.31,161.51Z"/><path class="cls-2" d="M64.38,157.59a48.14,48.14,0,0,1,12.91,5.28c-1.8,2.12-4.92,3.37-9.23,2.8-4.51-.59-9.49-3.24-13.47-7.24a9.29,9.29,0,0,1,4.28-1.3A19,19,0,0,1,64.38,157.59Z"/><path class="cls-2" d="M67.83,153.1a10.73,10.73,0,0,1-1.12-4.94,8.42,8.42,0,0,1,1.22-4.09,34.25,34.25,0,0,1,7.91,9c1.81,3.19,2.49,6.27,1.83,9C73.21,160.1,69.55,156.78,67.83,153.1Z"/><path class="cls-2" d="M51.62,144.66a48.71,48.71,0,0,1,10.69,8.11c-2.18,1.54-5.4,1.95-9.28.34-4.06-1.68-8-5.43-10.71-10.18C44.93,142.18,48.09,142.83,51.62,144.66Z"/><path class="cls-2" d="M56,141.37c-.65-3.67.45-6.5,2.4-8.32a33.39,33.39,0,0,1,5,10.3c.88,3.39.76,6.41-.51,8.81C59.19,149.21,56.61,145.21,56,141.37Z"/><path class="cls-2" d="M42.85,128.74a47.26,47.26,0,0,1,7.69,10.33,7.37,7.37,0,0,1-4.06.18,11.54,11.54,0,0,1-4.59-2.35c-3.3-2.64-6-7.15-7.14-12.2a8.88,8.88,0,0,1,4,1A17.84,17.84,0,0,1,42.85,128.74Z"/><path class="cls-2" d="M47.72,126.87a9.81,9.81,0,0,1,1.5-4.43,7.57,7.57,0,0,1,2.92-2.63A32.07,32.07,0,0,1,54,130.68a14.88,14.88,0,0,1-.78,4.55,9,9,0,0,1-2,3.42A17.87,17.87,0,0,1,47.72,126.87Z"/><path class="cls-2" d="M38.81,111.08a41.64,41.64,0,0,1,4.33,11.52c-2.46.1-5.13-1.18-7.36-4.32a22.14,22.14,0,0,1-3.43-12.89,8.19,8.19,0,0,1,3.44,1.9A15.08,15.08,0,0,1,38.81,111.08Z"/><path class="cls-2" d="M43.78,110.59a10.14,10.14,0,0,1,2.51-3.74,7.61,7.61,0,0,1,3.35-1.76,28.91,28.91,0,0,1-1,10.72c-1,3.09-2.57,5.36-4.73,6.58A17.75,17.75,0,0,1,43.78,110.59Z"/><path class="cls-2" d="M39.38,93.05c.24.87.49,1.77.68,2.71a24.18,24.18,0,0,1,.38,2.87c.08,1,.2,2,.22,3s0,2,0,3.09c-2.35-.53-4.35-2.37-5.73-5.75a20.18,20.18,0,0,1-1.09-6c0-1.07.08-2.18.2-3.3.07-.56.14-1.13.24-1.69s.27-1.12.42-1.68a7.75,7.75,0,0,1,2.75,2.53A13.68,13.68,0,0,1,39.38,93.05Z"/><path class="cls-2" d="M44.11,93.74a10.09,10.09,0,0,1,3.15-2.93,7.27,7.27,0,0,1,3.53-.88l-.55,2.66a20.94,20.94,0,0,1-.77,2.55,19.22,19.22,0,0,1-2.14,4.61,10.18,10.18,0,0,1-6,5,19.46,19.46,0,0,1,.08-3.06,18.53,18.53,0,0,1,.47-2.92,21,21,0,0,1,.93-2.67A10.92,10.92,0,0,1,44.11,93.74Z"/><path class="cls-2" d="M44.23,75.69a23.69,23.69,0,0,1-.3,5.41,44.61,44.61,0,0,1-1.25,5.68,6.82,6.82,0,0,1-2.6-2.43,10.65,10.65,0,0,1-1.35-4.22,18.68,18.68,0,0,1,1.33-8.78,21.48,21.48,0,0,1,1.37-3C43.08,69.88,44.14,72.43,44.23,75.69Z"/><path class="cls-2" d="M48.44,77.43c2.47-2,4.86-2.56,7.07-2-.38.78-.7,1.59-1.12,2.34s-.89,1.46-1.3,2.18a21.81,21.81,0,0,1-3,3.77,11.91,11.91,0,0,1-3.34,2.36,7.49,7.49,0,0,1-3.36.82,19,19,0,0,1,1.88-5.41A15.88,15.88,0,0,1,48.44,77.43Z"/><path class="cls-2" d="M53.29,60.11a33.12,33.12,0,0,1-4.13,9.82,6.37,6.37,0,0,1-1.8-2.87,9.9,9.9,0,0,1-.22-4.21c.45-3.43,2.48-7.09,5.35-10.16C53.69,54.51,54,57.07,53.29,60.11Z"/><path class="cls-2" d="M56.73,62.74c2.74-1.26,5.13-1.13,7-.08a24.73,24.73,0,0,1-7,6.29A11.69,11.69,0,0,1,53,70.31a7.14,7.14,0,0,1-3.29-.07,17.71,17.71,0,0,1,3.05-4.51A14.27,14.27,0,0,1,56.73,62.74Z"/><path class="cls-2" d="M66.16,47.49a21.78,21.78,0,0,1-2.74,4.06,25.78,25.78,0,0,1-1.7,2c-.31.32-.62.62-.95.93s-.61.64-.93,1a5.94,5.94,0,0,1-.91-3.08,9.78,9.78,0,0,1,.9-3.91c.17-.38.35-.75.55-1.13s.46-.72.71-1.07a22.08,22.08,0,0,1,1.72-2.11A15.78,15.78,0,0,1,65,42.18a26.85,26.85,0,0,1,2.44-1.67C68,42.47,67.6,44.92,66.16,47.49Z"/><path class="cls-2" d="M68.61,50.79c2.84-.41,5,.31,6.37,1.76-.64.46-1.28.91-1.94,1.3s-1.36.71-2,1.07a14.48,14.48,0,0,1-2,.88c-.35.13-.7.23-1.05.33s-.67.21-1,.3a10.21,10.21,0,0,1-3.67.29,6.81,6.81,0,0,1-3-.91c.29-.34.59-.66.89-1s.66-.58,1-.86c.68-.54,1.37-1,2.07-1.49A14.15,14.15,0,0,1,68.61,50.79Z"/><path class="cls-2" d="M82.14,39.11a31.57,31.57,0,0,1-8,5.33c-.52-1.88,0-4.1,2-6.32a17.16,17.16,0,0,1,9.11-5C85.24,35.11,84.15,37.12,82.14,39.11Z"/><path class="cls-2" d="M83.41,42.78a6.51,6.51,0,0,1,5.23,3.41,22.7,22.7,0,0,1-8.33,1.19A8.49,8.49,0,0,1,74.46,45,14,14,0,0,1,83.41,42.78Z"/><path class="cls-2" d="M136.74,184.55A27.88,27.88,0,0,0,126,175.7a57.94,57.94,0,0,0-13-4.53,80.84,80.84,0,0,0-11.87-1.81h-.26a2,2,0,0,1-.26,0,84,84,0,0,1-14.25-3.67A72.88,72.88,0,0,1,63,152.08a62.6,62.6,0,0,1-16-21.6,65.13,65.13,0,0,1-5.49-26.37,77.4,77.4,0,0,1,1.25-13.5c.14-1.12.48-2.21.71-3.31A33.83,33.83,0,0,1,44.32,84l1-3.24,1.19-3.18A65.92,65.92,0,0,1,61.29,55,58.66,58.66,0,0,1,84.21,41L84,40.23A59.48,59.48,0,0,0,60.7,54.44a67.14,67.14,0,0,0-15,22.82l-1.22,3.21-1,3.29c-.36,1.09-.61,2.21-.87,3.32s-.58,2.22-.73,3.36a78.43,78.43,0,0,0-1.29,13.68,66,66,0,0,0,5.52,26.77,63.72,63.72,0,0,0,16.23,22,74.21,74.21,0,0,0,23.63,13.84,84.54,84.54,0,0,0,14.46,3.8,1.6,1.6,0,0,0,.29.05l.3,0a78,78,0,0,1,11.68,1.85,56,56,0,0,1,12.71,4.5,26.34,26.34,0,0,1,10.06,8.47Z"/><path class="cls-2" d="M125.43,40.61a45.68,45.68,0,0,1-9.51-2.71,18.09,18.09,0,0,1,9.75-.84,17.86,17.86,0,0,1,9.19,4.4A46.86,46.86,0,0,1,125.43,40.61Z"/><path class="cls-2" d="M134.28,161.51c-2.66,3.29-7.15,5.76-12.14,6.75,0-2.93,1.39-5.89,4-8.69a34.94,34.94,0,0,1,10.32-7.21C137.32,155.1,136.83,158.37,134.28,161.51Z"/><path class="cls-2" d="M136.65,166.89c4.28.12,7.58,1.19,9.64,3.32-5,3-10.61,4.43-15.29,3.94-4.47-.46-7.33-2.46-8.65-5A47.87,47.87,0,0,1,136.65,166.89Z"/><path class="cls-2" d="M148.75,153.08c-1.72,3.68-5.38,7-9.84,9-.65-2.75,0-5.83,1.83-9a34.09,34.09,0,0,1,7.91-9,8.42,8.42,0,0,1,1.22,4.09A10.67,10.67,0,0,1,148.75,153.08Z"/><path class="cls-2" d="M152.2,157.57a18.64,18.64,0,0,1,5.51-.45,9.29,9.29,0,0,1,4.28,1.3c-4,4-9,6.64-13.46,7.24-4.32.57-7.44-.69-9.24-2.8A48.18,48.18,0,0,1,152.2,157.57Z"/><path class="cls-2" d="M160.61,141.35c-.66,3.84-3.23,7.84-6.89,10.79-1.27-2.4-1.39-5.42-.51-8.81a33.25,33.25,0,0,1,5-10.3A8.78,8.78,0,0,1,160.61,141.35Z"/><path class="cls-2" d="M165,144.64c3.52-1.83,6.68-2.48,9.29-1.73-2.67,4.75-6.65,8.49-10.7,10.17-3.89,1.62-7.1,1.2-9.28-.33A48.09,48.09,0,0,1,165,144.64Z"/><path class="cls-2" d="M168.82,126.85a17.78,17.78,0,0,1-3.47,11.77,9,9,0,0,1-2-3.42,14.81,14.81,0,0,1-.78-4.54,32,32,0,0,1,1.87-10.86,7.57,7.57,0,0,1,2.92,2.63A9.65,9.65,0,0,1,168.82,126.85Z"/><path class="cls-2" d="M173.69,128.72a18.14,18.14,0,0,1,4.1-3,9.15,9.15,0,0,1,4-1c-1.2,5-3.85,9.56-7.15,12.19a11.48,11.48,0,0,1-4.58,2.36A7.46,7.46,0,0,1,166,139,46.84,46.84,0,0,1,173.69,128.72Z"/><path class="cls-2" d="M172.74,110.59a17.69,17.69,0,0,1-.07,11.78,10.94,10.94,0,0,1-4.74-6.57,29.09,29.09,0,0,1-1.05-10.71,7.54,7.54,0,0,1,3.35,1.75A10.15,10.15,0,0,1,172.74,110.59Z"/><path class="cls-2" d="M177.71,111.07a15.22,15.22,0,0,1,3-3.78,8.14,8.14,0,0,1,3.44-1.9,22.06,22.06,0,0,1-3.44,12.88c-2.23,3.13-4.89,4.41-7.35,4.31A41.25,41.25,0,0,1,177.71,111.07Z"/><path class="cls-2" d="M172.4,93.75a10.46,10.46,0,0,1,1.29,2.32,19.52,19.52,0,0,1,.94,2.67,18.21,18.21,0,0,1,.46,2.91,17.32,17.32,0,0,1,.08,3.06,10.17,10.17,0,0,1-6-5,19,19,0,0,1-2.13-4.6,19.63,19.63,0,0,1-.77-2.54c-.18-.88-.37-1.76-.56-2.66a7.24,7.24,0,0,1,3.53.88A10.19,10.19,0,0,1,172.4,93.75Z"/><path class="cls-2" d="M177.12,93.06a13.52,13.52,0,0,1,2-4.18,7.75,7.75,0,0,1,2.75-2.53q.22.84.42,1.68c.09.56.17,1.12.23,1.68a28.77,28.77,0,0,1,.2,3.3,19.74,19.74,0,0,1-1.08,6c-1.39,3.39-3.38,5.22-5.73,5.74,0-1-.08-2.07,0-3.08s.14-2,.21-3a22.36,22.36,0,0,1,.39-2.86C176.64,94.83,176.89,93.93,177.12,93.06Z"/><path class="cls-2" d="M168.06,77.47a15.52,15.52,0,0,1,3.2,4.1A19.14,19.14,0,0,1,173.15,87a7.49,7.49,0,0,1-3.37-.81,11.91,11.91,0,0,1-3.34-2.36,21.81,21.81,0,0,1-3-3.77c-.4-.71-.9-1.41-1.29-2.17s-.74-1.55-1.12-2.34C163.2,74.92,165.59,75.47,168.06,77.47Z"/><path class="cls-2" d="M172.27,75.73c.08-3.25,1.15-5.81,2.8-7.31a22.62,22.62,0,0,1,1.37,3,19.26,19.26,0,0,1,.95,3,17.13,17.13,0,0,1,.38,5.77,10.65,10.65,0,0,1-1.36,4.22,6.71,6.71,0,0,1-2.6,2.42,44.26,44.26,0,0,1-1.24-5.66A23.16,23.16,0,0,1,172.27,75.73Z"/><path class="cls-2" d="M159.76,62.81a14.27,14.27,0,0,1,4,3,17.48,17.48,0,0,1,3,4.5,7.32,7.32,0,0,1-3.3.07A11.73,11.73,0,0,1,159.82,69a24.47,24.47,0,0,1-7-6.27C154.64,61.69,157,61.56,159.76,62.81Z"/><path class="cls-2" d="M163.21,60.19c-.69-3-.4-5.6.8-7.42,2.86,3.07,4.89,6.72,5.34,10.14a9.89,9.89,0,0,1-.22,4.21,6.37,6.37,0,0,1-1.8,2.87A32.83,32.83,0,0,1,163.21,60.19Z"/><path class="cls-2" d="M147.9,50.9a14.06,14.06,0,0,1,4.37,1.68,23.82,23.82,0,0,1,2.06,1.49c.34.28.67.56,1,.86s.61.64.9,1a6.9,6.9,0,0,1-3,.92,10.43,10.43,0,0,1-3.67-.29,9.15,9.15,0,0,1-1-.3c-.35-.09-.7-.2-1-.32a15.76,15.76,0,0,1-2-.88c-.64-.36-1.34-.67-2-1.07a23.15,23.15,0,0,1-1.93-1.29C142.94,51.21,145.06,50.49,147.9,50.9Z"/><path class="cls-2" d="M150.35,47.6c-1.44-2.57-1.83-5-1.23-7a26.31,26.31,0,0,1,2.44,1.68,15.55,15.55,0,0,1,2.14,1.89,21.57,21.57,0,0,1,1.71,2.1c.26.36.5.71.71,1.07s.39.76.55,1.13a9.75,9.75,0,0,1,.89,3.9,6.09,6.09,0,0,1-.9,3.09c-.32-.32-.64-.63-.94-1s-.64-.61-.94-.92a23.58,23.58,0,0,1-1.69-2A20.93,20.93,0,0,1,150.35,47.6Z"/><path class="cls-2" d="M133.13,42.93a13.92,13.92,0,0,1,8.92,2.15,8.49,8.49,0,0,1-5.83,2.44,22.8,22.8,0,0,1-8.31-1.18A6.48,6.48,0,0,1,133.13,42.93Z"/><path class="cls-2" d="M134.4,39.25c-2-2-3.09-4-3.1-5.94a17.14,17.14,0,0,1,9.08,4.95c2,2.22,2.47,4.44,2,6.31A31.15,31.15,0,0,1,134.4,39.25Z"/><path class="cls-2" d="M81.2,185.45a26.26,26.26,0,0,1,10-8.45,56.21,56.21,0,0,1,12.69-4.51,79.38,79.38,0,0,1,11.67-1.84l.3,0a1.54,1.54,0,0,0,.3,0,84.68,84.68,0,0,0,14.47-3.81,74.18,74.18,0,0,0,23.64-13.84,63.69,63.69,0,0,0,16.24-22,65.91,65.91,0,0,0,5.53-26.79,78.54,78.54,0,0,0-1.29-13.69c-.15-1.14-.49-2.24-.73-3.36s-.51-2.24-.87-3.33l-1-3.28L171,77.24a67.27,67.27,0,0,0-15-22.83,59.43,59.43,0,0,0-23.3-14.22l-.24.75a58.49,58.49,0,0,1,23,14.07,68.68,68.68,0,0,1,8.56,10.52,68,68,0,0,1,6.23,12l1.2,3.18,1,3.25c.36,1.07.6,2.18.86,3.28s.56,2.2.71,3.32a77.52,77.52,0,0,1,1.25,13.51,65,65,0,0,1-5.5,26.39,62.54,62.54,0,0,1-16,21.61,73.14,73.14,0,0,1-23.32,13.58A83.87,83.87,0,0,1,116,169.36a2.3,2.3,0,0,1-.26,0l-.26,0a80.84,80.84,0,0,0-11.87,1.81,57.38,57.38,0,0,0-13,4.53,27.61,27.61,0,0,0-10.72,8.83Z"/><text class="cls-3" transform="translate(82.89 139.35)">7</text></g></g></svg>