<svg xmlns="http://www.w3.org/2000/svg" viewBox="0 0 151.32 153.29"><defs><style>.cls-1{fill:#f6e27a;}.cls-2{fill:#cb9b51;}</style></defs><g id="Camada_2" data-name="Camada 2"><g id="Camada_1-2" data-name="Camada 1"><path class="cls-1" d="M58.19,4a18,18,0,0,1,10.14.92,46.47,46.47,0,0,1-9.12,2.49,46.62,46.62,0,0,1-9.86.77A18,18,0,0,1,58.19,4Z"/><path class="cls-1" d="M47.6,133.73A47.8,47.8,0,0,1,61.9,136c-1.32,2.57-4.18,4.58-8.65,5-4.68.49-10.3-.94-15.29-3.93C40,134.92,43.32,133.84,47.6,133.73Z"/><path class="cls-1" d="M50,128.35c-2.55-3.15-3-6.41-2.19-9.15a34.94,34.94,0,0,1,10.32,7.21c2.62,2.8,4,5.76,4,8.69C57.13,134.1,52.63,131.64,50,128.35Z"/><path class="cls-1" d="M32,124.43A48.14,48.14,0,0,1,45,129.71c-1.8,2.12-4.92,3.37-9.23,2.8-4.51-.59-9.49-3.24-13.47-7.24a9.32,9.32,0,0,1,4.28-1.3A18.34,18.34,0,0,1,32,124.43Z"/><path class="cls-1" d="M35.49,119.94A10.73,10.73,0,0,1,34.37,115a8.42,8.42,0,0,1,1.22-4.09,34.25,34.25,0,0,1,7.91,9c1.82,3.19,2.49,6.27,1.83,9C40.87,126.94,37.21,123.62,35.49,119.94Z"/><path class="cls-1" d="M19.28,111.5A48.4,48.4,0,0,1,30,119.61c-2.18,1.54-5.39,2-9.28.33-4.06-1.68-8-5.42-10.71-10.18C12.59,109,15.75,109.67,19.28,111.5Z"/><path class="cls-1" d="M23.61,108.21c-.65-3.67.45-6.5,2.41-8.32a33.48,33.48,0,0,1,5,10.3c.88,3.39.76,6.41-.51,8.81C26.85,116.05,24.27,112.05,23.61,108.21Z"/><path class="cls-1" d="M10.51,95.58a47.26,47.26,0,0,1,7.69,10.33,7.46,7.46,0,0,1-4.06.18,11.58,11.58,0,0,1-4.59-2.36c-3.3-2.63-6-7.15-7.14-12.19a8.88,8.88,0,0,1,4,1A17.84,17.84,0,0,1,10.51,95.58Z"/><path class="cls-1" d="M15.38,93.71a9.81,9.81,0,0,1,1.5-4.43,7.57,7.57,0,0,1,2.92-2.63,32,32,0,0,1,1.88,10.87,14.76,14.76,0,0,1-.78,4.54,9.09,9.09,0,0,1-2,3.43A17.89,17.89,0,0,1,15.38,93.71Z"/><path class="cls-1" d="M6.47,77.91A41.76,41.76,0,0,1,10.8,89.43c-2.46.11-5.13-1.17-7.36-4.31A22.14,22.14,0,0,1,0,72.23a8.19,8.19,0,0,1,3.44,1.9A15.2,15.2,0,0,1,6.47,77.91Z"/><path class="cls-1" d="M11.44,77.43A10.4,10.4,0,0,1,14,73.68a7.49,7.49,0,0,1,3.35-1.75,29.14,29.14,0,0,1-1,10.72c-1,3.08-2.58,5.36-4.74,6.58A17.75,17.75,0,0,1,11.44,77.43Z"/><path class="cls-1" d="M7.05,59.89c.23.86.48,1.77.67,2.7a24.75,24.75,0,0,1,.38,2.87c.08,1,.2,2,.22,3s0,2.05,0,3.09C5.93,71,3.93,69.19,2.55,65.81a19.87,19.87,0,0,1-1.08-6,28.63,28.63,0,0,1,.2-3.3c.06-.57.13-1.13.23-1.69s.27-1.12.42-1.68A7.75,7.75,0,0,1,5.07,55.7,13.81,13.81,0,0,1,7.05,59.89Z"/><path class="cls-1" d="M11.77,60.58a10.11,10.11,0,0,1,3.16-2.93,7.21,7.21,0,0,1,3.52-.88c-.18.9-.37,1.78-.55,2.66A21.33,21.33,0,0,1,17.13,62,19.11,19.11,0,0,1,15,66.59a10.18,10.18,0,0,1-6,5,19.46,19.46,0,0,1,.08-3.06,18.34,18.34,0,0,1,.47-2.92,21,21,0,0,1,.93-2.67A10.92,10.92,0,0,1,11.77,60.58Z"/><path class="cls-1" d="M11.89,42.53a23.72,23.72,0,0,1-.3,5.41,46.33,46.33,0,0,1-1.24,5.68,6.77,6.77,0,0,1-2.61-2.43A10.71,10.71,0,0,1,6.39,47a16.93,16.93,0,0,1,.38-5.78,18.06,18.06,0,0,1,1-3,21.92,21.92,0,0,1,1.37-3C10.74,36.71,11.81,39.27,11.89,42.53Z"/><path class="cls-1" d="M16.1,44.27c2.47-2,4.87-2.56,7.07-2-.38.78-.7,1.59-1.12,2.34s-.89,1.45-1.3,2.17a21.43,21.43,0,0,1-3,3.77A11.61,11.61,0,0,1,14.37,53a7.63,7.63,0,0,1-3.36.82,19.26,19.26,0,0,1,1.88-5.41A15.71,15.71,0,0,1,16.1,44.27Z"/><path class="cls-1" d="M21,27a33.12,33.12,0,0,1-4.13,9.82A6.37,6.37,0,0,1,15,33.9a9.9,9.9,0,0,1-.22-4.21c.45-3.43,2.48-7.09,5.35-10.16C21.35,21.34,21.64,23.91,21,27Z"/><path class="cls-1" d="M24.39,29.58c2.74-1.26,5.13-1.14,7-.09a24.79,24.79,0,0,1-7,6.3,12.26,12.26,0,0,1-3.64,1.36,7.32,7.32,0,0,1-3.3-.07,17.54,17.54,0,0,1,3.05-4.51A14.57,14.57,0,0,1,24.39,29.58Z"/><path class="cls-1" d="M33.82,14.32a21.14,21.14,0,0,1-2.74,4.06,22.29,22.29,0,0,1-1.7,2c-.31.31-.62.62-.94.92s-.62.65-.94,1a5.94,5.94,0,0,1-.91-3.09,10,10,0,0,1,.9-3.9c.17-.38.35-.76.55-1.13s.46-.72.71-1.08a23.29,23.29,0,0,1,1.72-2.1A15.13,15.13,0,0,1,32.62,9a23.32,23.32,0,0,1,2.44-1.67C35.66,9.31,35.26,11.75,33.82,14.32Z"/><path class="cls-1" d="M36.27,17.62c2.84-.41,5,.32,6.37,1.77-.64.46-1.27.91-1.94,1.3s-1.36.7-2,1.07a15.76,15.76,0,0,1-2,.88q-.53.18-1.05.33c-.33.11-.67.21-1,.3a10.76,10.76,0,0,1-3.68.29,6.81,6.81,0,0,1-3-.91c.29-.34.59-.67.89-1s.66-.58,1-.86a21.87,21.87,0,0,1,2.06-1.49A14.27,14.27,0,0,1,36.27,17.62Z"/><path class="cls-1" d="M49.8,5.94a31.59,31.59,0,0,1-7.95,5.34c-.52-1.88,0-4.1,2-6.33A17.22,17.22,0,0,1,52.92,0C52.9,2,51.81,4,49.8,5.94Z"/><path class="cls-1" d="M51.07,9.62A6.49,6.49,0,0,1,56.3,13,22.92,22.92,0,0,1,48,14.22a8.49,8.49,0,0,1-5.84-2.43A13.94,13.94,0,0,1,51.07,9.62Z"/><path class="cls-1" d="M104.4,151.39a27.63,27.63,0,0,0-10.74-8.85,57.29,57.29,0,0,0-13-4.53,79.52,79.52,0,0,0-11.87-1.81l-.26,0a2.06,2.06,0,0,1-.26,0A84,84,0,0,1,54,132.48a73,73,0,0,1-23.3-13.57,62.47,62.47,0,0,1-16-21.59A65.13,65.13,0,0,1,9.16,71a77.4,77.4,0,0,1,1.25-13.5c.15-1.12.48-2.21.71-3.32s.5-2.21.86-3.28l1-3.25,1.19-3.17A66.31,66.31,0,0,1,29,21.88,58.66,58.66,0,0,1,51.87,7.82l-.23-.75A59.45,59.45,0,0,0,28.36,21.28a69.19,69.19,0,0,0-8.69,10.63,70.08,70.08,0,0,0-6.34,12.18l-1.22,3.22-1,3.29c-.36,1.08-.61,2.2-.87,3.32s-.58,2.22-.73,3.36A78.32,78.32,0,0,0,8.21,71a66,66,0,0,0,5.52,26.78,63.72,63.72,0,0,0,16.23,22,74.51,74.51,0,0,0,23.63,13.84,85.47,85.47,0,0,0,14.46,3.8,1.54,1.54,0,0,0,.3,0l.29,0a79.3,79.3,0,0,1,11.68,1.84A56.36,56.36,0,0,1,93,143.79a26.26,26.26,0,0,1,10.06,8.47Z"/><path class="cls-2" d="M60.67,5a18,18,0,0,1,10.14.92,46.58,46.58,0,0,1-9.13,2.49,46.53,46.53,0,0,1-9.85.77A18,18,0,0,1,60.67,5Z"/><path class="cls-2" d="M50.07,134.73A47.91,47.91,0,0,1,64.38,137c-1.32,2.57-4.18,4.58-8.66,5-4.67.49-10.29-.94-15.28-3.93C42.5,135.92,45.8,134.84,50.07,134.73Z"/><path class="cls-2" d="M52.45,129.35c-2.55-3.15-3-6.41-2.19-9.15a35.07,35.07,0,0,1,10.32,7.21c2.61,2.8,4,5.76,4,8.69C59.6,135.1,55.11,132.64,52.45,129.35Z"/><path class="cls-2" d="M34.52,125.43a48,48,0,0,1,12.9,5.28c-1.79,2.12-4.91,3.37-9.23,2.8-4.51-.59-9.48-3.24-13.47-7.24A9.37,9.37,0,0,1,29,125,18.34,18.34,0,0,1,34.52,125.43Z"/><path class="cls-2" d="M38,120.94A10.88,10.88,0,0,1,36.84,116a8.53,8.53,0,0,1,1.22-4.09,34.29,34.29,0,0,1,7.92,9c1.81,3.19,2.48,6.27,1.83,9C43.35,127.94,39.69,124.62,38,120.94Z"/><path class="cls-2" d="M21.75,112.5a48.68,48.68,0,0,1,10.7,8.11c-2.19,1.54-5.4,2-9.28.33-4.06-1.68-8-5.42-10.72-10.18C15.07,110,18.23,110.67,21.75,112.5Z"/><path class="cls-2" d="M26.09,109.21a8.78,8.78,0,0,1,2.4-8.32,33.51,33.51,0,0,1,5,10.3c.88,3.39.75,6.41-.52,8.81C29.32,117.05,26.75,113.05,26.09,109.21Z"/><path class="cls-2" d="M13,96.58a47.26,47.26,0,0,1,7.69,10.33,7.46,7.46,0,0,1-4.06.18A11.45,11.45,0,0,1,12,104.73c-3.3-2.63-6-7.15-7.15-12.19a8.92,8.92,0,0,1,4,1A17.84,17.84,0,0,1,13,96.58Z"/><path class="cls-2" d="M17.86,94.71a9.69,9.69,0,0,1,1.5-4.43,7.5,7.5,0,0,1,2.92-2.63,32.28,32.28,0,0,1,1.88,10.87,15.06,15.06,0,0,1-.79,4.54,9.09,9.09,0,0,1-2,3.43A17.88,17.88,0,0,1,17.86,94.71Z"/><path class="cls-2" d="M9,78.91a41.76,41.76,0,0,1,4.33,11.52c-2.47.11-5.13-1.17-7.36-4.31A22.07,22.07,0,0,1,2.48,73.23a8.14,8.14,0,0,1,3.44,1.9A15.22,15.22,0,0,1,9,78.91Z"/><path class="cls-2" d="M13.92,78.43a10.15,10.15,0,0,1,2.51-3.75,7.44,7.44,0,0,1,3.35-1.75,29.14,29.14,0,0,1-1.05,10.72c-1,3.08-2.57,5.36-4.74,6.58A17.75,17.75,0,0,1,13.92,78.43Z"/><path class="cls-2" d="M9.52,60.89c.23.86.48,1.77.67,2.7a22.77,22.77,0,0,1,.39,2.87c.08,1,.2,2,.21,3s0,2.05,0,3.09C8.4,72,6.41,70.19,5,66.81a20.18,20.18,0,0,1-1.08-6,31.06,31.06,0,0,1,.2-3.3c.07-.57.14-1.13.24-1.69s.26-1.12.41-1.68A7.77,7.77,0,0,1,7.55,56.7,13.57,13.57,0,0,1,9.52,60.89Z"/><path class="cls-2" d="M14.25,61.58a10,10,0,0,1,3.15-2.93,7.27,7.27,0,0,1,3.53-.88c-.19.9-.37,1.78-.56,2.66A19.63,19.63,0,0,1,19.6,63a19.09,19.09,0,0,1-2.13,4.62,10.21,10.21,0,0,1-6,5,22.57,22.57,0,0,1,.55-6A21,21,0,0,1,13,63.9,10.5,10.5,0,0,1,14.25,61.58Z"/><path class="cls-2" d="M14.36,43.53a23.16,23.16,0,0,1-.3,5.41,44.55,44.55,0,0,1-1.24,5.68,6.84,6.84,0,0,1-2.61-2.43A10.87,10.87,0,0,1,8.86,48a17,17,0,0,1,.39-5.78,18,18,0,0,1,.94-3,24.68,24.68,0,0,1,1.37-3C13.22,37.71,14.28,40.27,14.36,43.53Z"/><path class="cls-2" d="M18.57,45.27c2.48-2,4.87-2.56,7.07-2-.37.78-.69,1.59-1.11,2.34s-.89,1.45-1.3,2.17a21.43,21.43,0,0,1-3,3.77A11.75,11.75,0,0,1,16.85,54a7.64,7.64,0,0,1-3.37.82,19.27,19.27,0,0,1,1.89-5.41A15.68,15.68,0,0,1,18.57,45.27Z"/><path class="cls-2" d="M23.42,28a32.86,32.86,0,0,1-4.13,9.82,6.54,6.54,0,0,1-1.8-2.87,9.91,9.91,0,0,1-.21-4.21c.45-3.43,2.48-7.09,5.35-10.16C23.82,22.34,24.12,24.91,23.42,28Z"/><path class="cls-2" d="M26.87,30.58c2.74-1.26,5.13-1.14,7-.09a24.75,24.75,0,0,1-7,6.3,12.21,12.21,0,0,1-3.65,1.36,7.32,7.32,0,0,1-3.3-.07,17.83,17.83,0,0,1,3.06-4.51A14.27,14.27,0,0,1,26.87,30.58Z"/><path class="cls-2" d="M36.29,15.32a20.26,20.26,0,0,1-2.74,4.06,22.29,22.29,0,0,1-1.7,2c-.3.31-.62.62-.94.92s-.62.65-.94,1a6,6,0,0,1-.9-3.09,9.78,9.78,0,0,1,.9-3.9c.16-.38.35-.76.55-1.13s.45-.72.71-1.08A21.7,21.7,0,0,1,33,11.92,15,15,0,0,1,35.09,10a24.56,24.56,0,0,1,2.45-1.67C38.14,10.31,37.74,12.75,36.29,15.32Z"/><path class="cls-2" d="M38.75,18.62c2.84-.41,5,.32,6.36,1.77-.63.46-1.27.91-1.93,1.3s-1.36.7-2,1.07a15.76,15.76,0,0,1-2,.88c-.34.12-.69.23-1,.33s-.68.21-1,.3a10.72,10.72,0,0,1-3.68.29,6.89,6.89,0,0,1-3-.91c.29-.34.59-.67.9-1s.66-.58,1-.86a23.24,23.24,0,0,1,2.06-1.49A14.23,14.23,0,0,1,38.75,18.62Z"/><path class="cls-2" d="M52.27,6.94a31.41,31.41,0,0,1-8,5.34c-.51-1.88,0-4.1,2-6.33A17.23,17.23,0,0,1,55.39,1C55.37,3,54.29,5,52.27,6.94Z"/><path class="cls-2" d="M53.55,10.62A6.52,6.52,0,0,1,58.78,14a23,23,0,0,1-8.34,1.19,8.51,8.51,0,0,1-5.84-2.43A14,14,0,0,1,53.55,10.62Z"/><path class="cls-2" d="M106.88,152.39a27.71,27.71,0,0,0-10.74-8.85,57.53,57.53,0,0,0-13-4.53,79.19,79.19,0,0,0-11.86-1.81l-.27,0a2.3,2.3,0,0,1-.26,0,83.65,83.65,0,0,1-14.24-3.67,73,73,0,0,1-23.31-13.57,62.44,62.44,0,0,1-16-21.59A65,65,0,0,1,11.64,72a78.37,78.37,0,0,1,1.24-13.5c.15-1.12.49-2.21.72-3.32a33.59,33.59,0,0,1,.85-3.28l1-3.25,1.19-3.17A66.09,66.09,0,0,1,31.42,22.88,58.62,58.62,0,0,1,54.35,8.82l-.24-.75A59.45,59.45,0,0,0,30.83,22.28a69.78,69.78,0,0,0-8.69,10.63,69.36,69.36,0,0,0-6.33,12.18l-1.22,3.22-1,3.29a31.13,31.13,0,0,0-.87,3.32c-.24,1.12-.58,2.22-.74,3.36A78.31,78.31,0,0,0,10.69,72a66,66,0,0,0,5.52,26.78,63.72,63.72,0,0,0,16.23,22,74.4,74.4,0,0,0,23.63,13.84,85.23,85.23,0,0,0,14.46,3.8,1.35,1.35,0,0,0,.29,0l.3,0a79.3,79.3,0,0,1,11.68,1.84,56.46,56.46,0,0,1,12.7,4.51,26.36,26.36,0,0,1,10.07,8.47Z"/><path class="cls-1" d="M92.57,7.45a46,46,0,0,1-9.52-2.71A18.11,18.11,0,0,1,92.8,3.9,17.89,17.89,0,0,1,102,8.3,47.54,47.54,0,0,1,92.57,7.45Z"/><path class="cls-1" d="M101.42,128.35c-2.66,3.29-7.16,5.75-12.14,6.75,0-2.93,1.39-5.89,4-8.69a34.81,34.81,0,0,1,10.32-7.21C104.46,121.94,104,125.2,101.42,128.35Z"/><path class="cls-1" d="M103.79,133.73c4.28.11,7.58,1.19,9.64,3.32-5,3-10.61,4.42-15.29,3.93-4.48-.45-7.33-2.46-8.66-5A47.91,47.91,0,0,1,103.79,133.73Z"/><path class="cls-1" d="M115.89,119.92c-1.73,3.68-5.38,7-9.84,9-.66-2.75,0-5.83,1.83-9a33.94,33.94,0,0,1,7.91-9A8.49,8.49,0,0,1,117,115,10.71,10.71,0,0,1,115.89,119.92Z"/><path class="cls-1" d="M119.34,124.41a18.6,18.6,0,0,1,5.5-.45,9.25,9.25,0,0,1,4.29,1.3c-4,4-9,6.64-13.47,7.23-4.31.58-7.43-.68-9.23-2.79A47.86,47.86,0,0,1,119.34,124.41Z"/><path class="cls-1" d="M127.75,108.19c-.66,3.84-3.23,7.84-6.89,10.78-1.27-2.39-1.4-5.42-.52-8.8a33.48,33.48,0,0,1,5-10.3C127.3,101.69,128.4,104.52,127.75,108.19Z"/><path class="cls-1" d="M132.08,111.48c3.53-1.83,6.68-2.49,9.3-1.73-2.67,4.75-6.65,8.49-10.71,10.17-3.88,1.61-7.09,1.2-9.28-.34A48.57,48.57,0,0,1,132.08,111.48Z"/><path class="cls-1" d="M136,93.69a17.89,17.89,0,0,1-3.47,11.77,9,9,0,0,1-2-3.42,15.11,15.11,0,0,1-.79-4.54,32,32,0,0,1,1.88-10.86,7.51,7.51,0,0,1,2.91,2.62A9.7,9.7,0,0,1,136,93.69Z"/><path class="cls-1" d="M140.83,95.56a17.84,17.84,0,0,1,4.1-3,8.88,8.88,0,0,1,4-1c-1.19,5-3.84,9.56-7.14,12.19a11.45,11.45,0,0,1-4.59,2.36,7.42,7.42,0,0,1-4-.19A46.61,46.61,0,0,1,140.83,95.56Z"/><path class="cls-1" d="M139.88,77.43a17.69,17.69,0,0,1-.08,11.78c-2.16-1.22-3.77-3.49-4.73-6.57a28.88,28.88,0,0,1-1-10.71,7.49,7.49,0,0,1,3.35,1.75A10.4,10.4,0,0,1,139.88,77.43Z"/><path class="cls-1" d="M144.85,77.91a15,15,0,0,1,3-3.78,8.09,8.09,0,0,1,3.44-1.9,22.13,22.13,0,0,1-3.43,12.88c-2.23,3.13-4.9,4.41-7.36,4.31A41.57,41.57,0,0,1,144.85,77.91Z"/><path class="cls-1" d="M139.53,60.59a10.5,10.5,0,0,1,1.3,2.32,21.35,21.35,0,0,1,.93,2.66,18.53,18.53,0,0,1,.47,2.92,19.46,19.46,0,0,1,.08,3.06,10.21,10.21,0,0,1-6-5,19.12,19.12,0,0,1-2.13-4.6,19.63,19.63,0,0,1-.77-2.54l-.56-2.66a7.34,7.34,0,0,1,3.53.87A10.1,10.1,0,0,1,139.53,60.59Z"/><path class="cls-1" d="M144.26,59.9a13.51,13.51,0,0,1,2-4.18A7.76,7.76,0,0,1,149,53.19c.15.56.29,1.12.41,1.67s.17,1.13.24,1.69a31.22,31.22,0,0,1,.2,3.3,20.38,20.38,0,0,1-1.08,6c-1.39,3.38-3.38,5.22-5.74,5.74,0-1-.08-2.07,0-3.08s.13-2,.21-3a22.52,22.52,0,0,1,.39-2.87C143.78,61.67,144,60.76,144.26,59.9Z"/><path class="cls-1" d="M135.2,44.31a15.84,15.84,0,0,1,3.2,4.09,19.19,19.19,0,0,1,1.88,5.4,7.61,7.61,0,0,1-3.36-.81,12.12,12.12,0,0,1-3.34-2.36,21.81,21.81,0,0,1-3-3.77c-.41-.72-.91-1.41-1.3-2.17s-.73-1.55-1.11-2.34C130.33,41.76,132.72,42.31,135.2,44.31Z"/><path class="cls-1" d="M139.41,42.57c.08-3.25,1.15-5.81,2.8-7.31a22.72,22.72,0,0,1,1.37,3,17.62,17.62,0,0,1,.94,3A16.87,16.87,0,0,1,144.9,47a10.65,10.65,0,0,1-1.35,4.21,6.7,6.7,0,0,1-2.61,2.43A45.79,45.79,0,0,1,139.7,48,23.06,23.06,0,0,1,139.41,42.57Z"/><path class="cls-1" d="M126.9,29.65a14.58,14.58,0,0,1,3.95,3,18.37,18.37,0,0,1,3.05,4.5,7.18,7.18,0,0,1-3.3.08A11.55,11.55,0,0,1,127,35.85a24.39,24.39,0,0,1-7-6.28C121.78,28.52,124.17,28.39,126.9,29.65Z"/><path class="cls-1" d="M130.34,27c-.68-3-.39-5.6.81-7.42,2.86,3.07,4.89,6.73,5.33,10.15a9.75,9.75,0,0,1-.21,4.21,6.51,6.51,0,0,1-1.8,2.86A32.91,32.91,0,0,1,130.34,27Z"/><path class="cls-1" d="M115,17.73a14.4,14.4,0,0,1,4.38,1.69,21.87,21.87,0,0,1,2.06,1.49c.33.28.67.56,1,.86s.6.64.89,1a7,7,0,0,1-3,.92,10.72,10.72,0,0,1-3.68-.29c-.34-.09-.68-.19-1-.3s-.7-.2-1.05-.32a15.63,15.63,0,0,1-2-.88c-.64-.37-1.35-.67-2-1.07s-1.3-.84-1.93-1.29C110.08,18.05,112.2,17.33,115,17.73Z"/><path class="cls-1" d="M117.49,14.43c-1.44-2.56-1.84-5-1.24-7a26.85,26.85,0,0,1,2.44,1.67,15.11,15.11,0,0,1,2.14,1.9,20.56,20.56,0,0,1,1.72,2.1c.25.35.49.71.71,1.07s.38.75.54,1.13a9.57,9.57,0,0,1,.9,3.9,5.94,5.94,0,0,1-.91,3.08c-.32-.31-.63-.63-.93-.95s-.64-.61-.94-.92a23.72,23.72,0,0,1-1.7-2A20.94,20.94,0,0,1,117.49,14.43Z"/><path class="cls-1" d="M100.27,9.76a14,14,0,0,1,8.92,2.16,8.49,8.49,0,0,1-5.83,2.44,22.77,22.77,0,0,1-8.31-1.18A6.49,6.49,0,0,1,100.27,9.76Z"/><path class="cls-1" d="M101.54,6.09c-2-2-3.09-4-3.11-5.94a17,17,0,0,1,9.08,4.94c1.95,2.23,2.47,4.44,2,6.32A31.42,31.42,0,0,1,101.54,6.09Z"/><path class="cls-1" d="M48.34,152.29a26.26,26.26,0,0,1,10-8.46,56.43,56.43,0,0,1,12.7-4.5,79,79,0,0,1,11.67-1.85l.3,0a2.54,2.54,0,0,0,.29,0,84.44,84.44,0,0,0,14.47-3.81,74.15,74.15,0,0,0,23.65-13.85,63.69,63.69,0,0,0,16.24-22A66.08,66.08,0,0,0,143.22,71a78.51,78.51,0,0,0-1.28-13.68c-.16-1.14-.5-2.24-.73-3.36s-.51-2.24-.88-3.33l-1-3.29-1.22-3.21a67.05,67.05,0,0,0-15-22.83A59.52,59.52,0,0,0,99.77,7l-.24.75a58.59,58.59,0,0,1,22.94,14.08A67.44,67.44,0,0,1,131,32.36a68.45,68.45,0,0,1,6.24,12l1.19,3.18,1,3.25a33.59,33.59,0,0,1,.85,3.28c.24,1.11.57,2.2.72,3.32A76.55,76.55,0,0,1,142.27,71a65.05,65.05,0,0,1-5.49,26.39,62.54,62.54,0,0,1-16,21.61,73,73,0,0,1-23.32,13.58,84,84,0,0,1-14.25,3.66,1.17,1.17,0,0,1-.26,0l-.27,0a79.19,79.19,0,0,0-11.86,1.81,57.84,57.84,0,0,0-13,4.52A27.72,27.72,0,0,0,47,151.42Z"/><path class="cls-2" d="M90.57,8.45a46,46,0,0,1-9.52-2.71A18.11,18.11,0,0,1,90.8,4.9,17.89,17.89,0,0,1,100,9.3,47.54,47.54,0,0,1,90.57,8.45Z"/><path class="cls-2" d="M99.42,129.35c-2.66,3.29-7.16,5.75-12.14,6.75,0-2.93,1.39-5.89,4-8.69a34.81,34.81,0,0,1,10.32-7.21C102.46,122.94,102,126.2,99.42,129.35Z"/><path class="cls-2" d="M101.79,134.73c4.28.11,7.58,1.19,9.64,3.32-5,3-10.61,4.42-15.29,3.93-4.48-.45-7.33-2.46-8.66-5A47.91,47.91,0,0,1,101.79,134.73Z"/><path class="cls-2" d="M113.89,120.92c-1.73,3.68-5.38,7-9.84,9-.66-2.75,0-5.83,1.83-9a33.94,33.94,0,0,1,7.91-9A8.49,8.49,0,0,1,115,116,10.71,10.71,0,0,1,113.89,120.92Z"/><path class="cls-2" d="M117.34,125.41a18.6,18.6,0,0,1,5.5-.45,9.25,9.25,0,0,1,4.29,1.3c-4,4-9,6.64-13.47,7.23-4.31.58-7.43-.68-9.23-2.79A47.86,47.86,0,0,1,117.34,125.41Z"/><path class="cls-2" d="M125.75,109.19c-.66,3.84-3.23,7.84-6.89,10.78-1.27-2.39-1.4-5.42-.52-8.8a33.48,33.48,0,0,1,5-10.3C125.3,102.69,126.4,105.52,125.75,109.19Z"/><path class="cls-2" d="M130.08,112.48c3.53-1.83,6.68-2.49,9.3-1.73-2.67,4.75-6.65,8.49-10.71,10.17-3.88,1.61-7.09,1.2-9.28-.34A48.57,48.57,0,0,1,130.08,112.48Z"/><path class="cls-2" d="M134,94.69a17.89,17.89,0,0,1-3.47,11.77,9,9,0,0,1-2-3.42,15.11,15.11,0,0,1-.79-4.54,32,32,0,0,1,1.88-10.86,7.51,7.51,0,0,1,2.91,2.62A9.7,9.7,0,0,1,134,94.69Z"/><path class="cls-2" d="M138.83,96.56a17.84,17.84,0,0,1,4.1-3,8.88,8.88,0,0,1,4-1c-1.19,5-3.84,9.56-7.14,12.19a11.45,11.45,0,0,1-4.59,2.36,7.42,7.42,0,0,1-4-.19A46.61,46.61,0,0,1,138.83,96.56Z"/><path class="cls-2" d="M137.88,78.43a17.69,17.69,0,0,1-.08,11.78c-2.16-1.22-3.77-3.49-4.73-6.57a28.88,28.88,0,0,1-1-10.71,7.49,7.49,0,0,1,3.35,1.75A10.4,10.4,0,0,1,137.88,78.43Z"/><path class="cls-2" d="M142.85,78.91a15,15,0,0,1,3-3.78,8.09,8.09,0,0,1,3.44-1.9,22.13,22.13,0,0,1-3.43,12.88c-2.23,3.13-4.9,4.41-7.36,4.31A41.57,41.57,0,0,1,142.85,78.91Z"/><path class="cls-2" d="M137.53,61.59a10.5,10.5,0,0,1,1.3,2.32,21.35,21.35,0,0,1,.93,2.66,18.53,18.53,0,0,1,.47,2.92,19.46,19.46,0,0,1,.08,3.06,10.21,10.21,0,0,1-6-5,19.12,19.12,0,0,1-2.13-4.6,19.63,19.63,0,0,1-.77-2.54l-.56-2.66a7.34,7.34,0,0,1,3.53.87A10.1,10.1,0,0,1,137.53,61.59Z"/><path class="cls-2" d="M142.26,60.9a13.51,13.51,0,0,1,2-4.18A7.76,7.76,0,0,1,147,54.19c.15.56.29,1.12.41,1.67s.17,1.13.24,1.69a31.22,31.22,0,0,1,.2,3.3,20.38,20.38,0,0,1-1.08,6c-1.39,3.38-3.38,5.22-5.74,5.74,0-1-.08-2.07,0-3.08s.13-2,.21-3a22.52,22.52,0,0,1,.39-2.87C141.78,62.67,142,61.76,142.26,60.9Z"/><path class="cls-2" d="M133.2,45.31a15.84,15.84,0,0,1,3.2,4.09,19.19,19.19,0,0,1,1.88,5.4,7.61,7.61,0,0,1-3.36-.81,12.12,12.12,0,0,1-3.34-2.36,21.81,21.81,0,0,1-3-3.77c-.41-.72-.91-1.41-1.3-2.17s-.73-1.55-1.11-2.34C128.33,42.76,130.72,43.31,133.2,45.31Z"/><path class="cls-2" d="M137.41,43.57c.08-3.25,1.15-5.81,2.8-7.31a22.72,22.72,0,0,1,1.37,3,17.62,17.62,0,0,1,.94,3A16.87,16.87,0,0,1,142.9,48a10.65,10.65,0,0,1-1.35,4.21,6.7,6.7,0,0,1-2.61,2.43A45.79,45.79,0,0,1,137.7,49,23.06,23.06,0,0,1,137.41,43.57Z"/><path class="cls-2" d="M124.9,30.65a14.58,14.58,0,0,1,3.95,3,18.37,18.37,0,0,1,3.05,4.5,7.18,7.18,0,0,1-3.3.08A11.55,11.55,0,0,1,125,36.85a24.39,24.39,0,0,1-7-6.28C119.78,29.52,122.17,29.39,124.9,30.65Z"/><path class="cls-2" d="M128.34,28c-.68-3-.39-5.6.81-7.42,2.86,3.07,4.89,6.73,5.33,10.15a9.75,9.75,0,0,1-.21,4.21,6.51,6.51,0,0,1-1.8,2.86A32.91,32.91,0,0,1,128.34,28Z"/><path class="cls-2" d="M113,18.73a14.4,14.4,0,0,1,4.38,1.69,21.87,21.87,0,0,1,2.06,1.49c.33.28.67.56,1,.86s.6.64.89,1a7,7,0,0,1-3,.92,10.72,10.72,0,0,1-3.68-.29c-.34-.09-.68-.19-1-.3s-.7-.2-1.05-.32a15.63,15.63,0,0,1-2-.88c-.64-.37-1.35-.67-2-1.07s-1.3-.84-1.93-1.29C108.08,19.05,110.2,18.33,113,18.73Z"/><path class="cls-2" d="M115.49,15.43c-1.44-2.56-1.84-5-1.24-7a26.85,26.85,0,0,1,2.44,1.67,15.11,15.11,0,0,1,2.14,1.9,20.56,20.56,0,0,1,1.72,2.1c.25.35.49.71.71,1.07s.38.75.54,1.13a9.57,9.57,0,0,1,.9,3.9,5.94,5.94,0,0,1-.91,3.08c-.32-.31-.63-.63-.93-.95s-.64-.61-.94-.92a23.72,23.72,0,0,1-1.7-2A20.94,20.94,0,0,1,115.49,15.43Z"/><path class="cls-2" d="M98.27,10.76a14,14,0,0,1,8.92,2.16,8.49,8.49,0,0,1-5.83,2.44,22.77,22.77,0,0,1-8.31-1.18A6.49,6.49,0,0,1,98.27,10.76Z"/><path class="cls-2" d="M99.54,7.09c-2-2-3.09-4-3.11-5.94a17,17,0,0,1,9.08,4.94c1.95,2.23,2.47,4.44,2,6.32A31.42,31.42,0,0,1,99.54,7.09Z"/><path class="cls-2" d="M46.34,153.29a26.26,26.26,0,0,1,10-8.46,56.43,56.43,0,0,1,12.7-4.5,79,79,0,0,1,11.67-1.85l.3,0a2.54,2.54,0,0,0,.29,0,84.44,84.44,0,0,0,14.47-3.81,74.15,74.15,0,0,0,23.65-13.85,63.69,63.69,0,0,0,16.24-22A66.08,66.08,0,0,0,141.22,72a78.51,78.51,0,0,0-1.28-13.68c-.16-1.14-.5-2.24-.73-3.36s-.51-2.24-.88-3.33l-1-3.29-1.22-3.21a67.05,67.05,0,0,0-15-22.83A59.52,59.52,0,0,0,97.77,8l-.24.75a58.59,58.59,0,0,1,22.94,14.08A67.44,67.44,0,0,1,129,33.36a68.45,68.45,0,0,1,6.24,12l1.19,3.18,1,3.25a33.59,33.59,0,0,1,.85,3.28c.24,1.11.57,2.2.72,3.32A76.55,76.55,0,0,1,140.27,72a65.05,65.05,0,0,1-5.49,26.39,62.54,62.54,0,0,1-16,21.61,73,73,0,0,1-23.32,13.58,84,84,0,0,1-14.25,3.66,1.17,1.17,0,0,1-.26,0l-.27,0a79.19,79.19,0,0,0-11.86,1.81,57.84,57.84,0,0,0-13,4.52A27.72,27.72,0,0,0,45,152.42Z"/></g></g></svg>